<svg xmlns="http://www.w3.org/2000/svg" width="480" height="150" viewBox="0 0 480 150">
<rect width="480" height="150" fill="#0a0c10"/>
<g transform="translate(40,43)"><rect width="64" height="64" rx="18" fill="#22d3ee"/>
<g transform="translate(9,9) scale(1.44)" fill="#04212a"><ellipse cx="11.6" cy="22.6" rx="5.6" ry="4.3" transform="rotate(-22 11.6 22.6)"/><rect x="15.3" y="6.6" width="2.1" height="16.4" rx="1"/><path d="M17.4 6.2c4.6 1.8 8.4 4.3 8.4 8.7 0 2.5-1.2 4.4-2.4 5.3 1.1-3.7-1.4-6.4-6-8.7z"/></g></g>
<g transform="translate(150,55)"><rect width="40" height="40" rx="11" fill="#22d3ee"/>
<g transform="translate(6,6) scale(0.875)" fill="#04212a"><ellipse cx="11.6" cy="22.6" rx="5.6" ry="4.3" transform="rotate(-22 11.6 22.6)"/><rect x="15.3" y="6.6" width="2.1" height="16.4" rx="1"/><path d="M17.4 6.2c4.6 1.8 8.4 4.3 8.4 8.7 0 2.5-1.2 4.4-2.4 5.3 1.1-3.7-1.4-6.4-6-8.7z"/></g></g>
<g transform="translate(226,63)"><rect width="24" height="24" rx="6" fill="#22d3ee"/>
<g transform="translate(3,3) scale(0.5625)" fill="#04212a"><ellipse cx="11.6" cy="22.6" rx="5.6" ry="4.3" transform="rotate(-22 11.6 22.6)"/><rect x="15.3" y="6.6" width="2.1" height="16.4" rx="1"/><path d="M17.4 6.2c4.6 1.8 8.4 4.3 8.4 8.7 0 2.5-1.2 4.4-2.4 5.3 1.1-3.7-1.4-6.4-6-8.7z"/></g></g>
<g transform="translate(280,67)"><rect width="16" height="16" rx="4" fill="#22d3ee"/>
<g transform="translate(2,2) scale(0.375)" fill="#04212a"><ellipse cx="11.6" cy="22.6" rx="5.6" ry="4.3" transform="rotate(-22 11.6 22.6)"/><rect x="15.3" y="6.6" width="2.1" height="16.4" rx="1"/><path d="M17.4 6.2c4.6 1.8 8.4 4.3 8.4 8.7 0 2.5-1.2 4.4-2.4 5.3 1.1-3.7-1.4-6.4-6-8.7z"/></g></g>
<text x="330" y="79" font-family="monospace" font-size="12" fill="#5a6979">64 / 40 / 24 / 16 px</text>
</svg>